<?xml version="1.0" encoding="UTF-8"?>
<svg id="Layer_2" data-name="Layer 2" xmlns="http://www.w3.org/2000/svg" viewBox="0 0 594 594">
  <defs>
    <style>
      .cls-1 {
        fill: #fff;
      }

      .cls-2 {
        fill: none;
        stroke: #44b75e;
        stroke-miterlimit: 10;
        stroke-width: 32px;
      }
    </style>
  </defs>
  <g id="Layer_1-2" data-name="Layer 1">
    <rect class="cls-1" width="594" height="594" rx="32.01" ry="32.01"/>
    <g>
      <path class="cls-2" d="m225.71,280.75c0,45.37-43.04,71.6-71.22,72-.28,0-.53,0-.78,0-28.24-.11-72-26.17-72-72,0-39.76,32.24-72,72-72s72,32.24,72,72Z"/>
      <circle class="cls-2" cx="441.71" cy="280.75" r="72"/>
      <path class="cls-2" d="m508.5,253.82c-2.39-26.01,1.74-65.61,40.77-82.61.11-.05.08-.2-.03-.21-11.33-.27-221.82,3.5-250.85,251.4-.09.8-1.25.8-1.34,0-27.77-237.1-224.96-251.32-251.7-251.4-.72,0-.94.98-.28,1.29,36.86,17.47,44.21,56.04,41.87,81.52"/>
      <path class="cls-2" d="m153.71,208.75c36.45-9.26,85.61-19.74,144-19.74,37.61,0,87.4,5.37,144,19.74"/>
    </g>
  </g>
</svg>